<?xml version="1.0" standalone="no"?>
<!DOCTYPE svg PUBLIC "-//W3C//DTD SVG 20010904//EN"
 "http://www.w3.org/TR/2001/REC-SVG-20010904/DTD/svg10.dtd">
<svg version="1.0" xmlns="http://www.w3.org/2000/svg"
 width="1200.000000pt" height="1200.000000pt" viewBox="0 0 1200.000000 1200.000000"
 preserveAspectRatio="xMidYMid meet">
<metadata>
Created by potrace 1.11, written by Peter Selinger 2001-2013
</metadata>
<g transform="translate(0.000000,1200.000000) scale(0.100000,-0.100000)"
fill="#000000" stroke="none">
<path d="M5529 11866 c-2 -2 -56 -7 -119 -11 -63 -3 -131 -8 -150 -10 -19 -2
-64 -7 -100 -10 -36 -3 -76 -7 -90 -10 -14 -2 -50 -7 -80 -10 -30 -3 -62 -8
-70 -10 -8 -2 -35 -7 -60 -10 -25 -3 -79 -12 -120 -20 -41 -8 -88 -17 -105
-20 -57 -9 -161 -33 -185 -42 -8 -3 -24 -7 -35 -8 -32 -4 -216 -55 -234 -65
-10 -5 -28 -11 -42 -13 -13 -2 -31 -7 -39 -10 -41 -15 -125 -40 -126 -36 0 2
-7 -1 -15 -8 -8 -6 -43 -21 -79 -33 -36 -12 -93 -35 -128 -51 -35 -16 -65 -29
-68 -29 -6 0 -301 -146 -359 -178 -353 -194 -704 -477 -956 -772 -126 -147
-270 -356 -355 -518 -20 -37 -41 -73 -47 -81 -7 -8 -11 -16 -10 -18 2 -1 -16
-42 -38 -90 -22 -49 -42 -92 -43 -98 -2 -5 -9 -23 -16 -40 -16 -38 -50 -135
-55 -155 -2 -8 -18 -60 -35 -115 -17 -55 -32 -107 -34 -115 -2 -8 -6 -22 -9
-30 -3 -8 -13 -51 -23 -95 -10 -44 -19 -84 -20 -90 -7 -26 -45 -235 -50 -275
-3 -25 -7 -56 -9 -69 -25 -144 -25 -611 -1 -751 3 -14 7 -43 10 -65 8 -54 27
-155 41 -215 1 -3 5 -21 9 -40 62 -266 210 -591 382 -843 30 -43 54 -82 54
-87 0 -5 3 -10 8 -12 4 -1 23 -23 42 -48 19 -25 39 -50 45 -57 5 -7 15 -18 20
-25 39 -52 158 -181 256 -278 139 -137 160 -157 298 -267 58 -47 115 -93 126
-102 65 -53 348 -242 490 -328 298 -179 634 -349 1025 -517 220 -95 318 -136
324 -136 4 0 25 -8 49 -19 23 -10 80 -33 127 -51 47 -18 99 -38 115 -45 17 -7
62 -24 100 -38 39 -14 81 -30 95 -35 14 -6 59 -23 100 -38 41 -14 89 -32 105
-39 17 -7 136 -54 265 -105 129 -50 263 -105 298 -121 35 -16 65 -29 67 -29 3
0 51 -21 107 -46 445 -200 730 -383 847 -544 30 -41 56 -91 69 -130 8 -24 7
-172 -2 -205 -48 -192 -230 -299 -561 -332 -128 -13 -394 -7 -545 12 -55 7
-131 17 -147 21 -6 1 -30 5 -51 8 -22 3 -51 7 -64 10 -20 5 -43 8 -123 20 -61
10 -353 80 -525 127 -188 52 -715 221 -775 249 -11 5 -51 20 -90 33 -38 14
-81 30 -95 35 -14 6 -79 32 -145 57 -116 45 -146 57 -210 85 -16 8 -32 14 -35
15 -10 3 -47 18 -124 51 -44 19 -85 34 -93 34 -7 0 -13 5 -13 10 0 6 -6 10
-13 10 -12 0 -168 67 -292 125 -78 36 -150 69 -155 70 -3 1 -27 12 -53 24 -27
13 -50 21 -51 19 -2 -1 -49 -95 -106 -208 -56 -113 -149 -295 -205 -405 -99
-194 -283 -556 -592 -1165 -83 -162 -239 -470 -348 -683 -108 -214 -195 -390
-193 -391 12 -10 419 -189 588 -259 455 -190 1026 -391 1410 -497 36 -10 90
-25 120 -33 30 -9 82 -23 115 -32 33 -9 76 -21 95 -25 19 -5 76 -18 125 -30
127 -31 166 -40 200 -46 17 -3 44 -9 60 -14 44 -13 350 -74 430 -85 17 -3 41
-7 55 -10 24 -5 51 -9 126 -20 20 -3 39 -7 43 -9 3 -2 35 -7 70 -10 35 -3 73
-8 85 -11 11 -2 41 -7 66 -10 25 -3 54 -7 65 -9 11 -2 56 -7 100 -10 92 -8
135 -12 223 -21 275 -29 858 -35 1137 -11 156 14 216 20 295 31 19 3 55 8 80
11 25 4 52 7 60 9 131 20 142 22 180 30 42 9 74 15 105 20 17 3 93 21 170 40
77 20 148 37 159 40 74 18 358 117 431 150 390 177 591 290 838 471 192 141
449 382 584 549 234 289 376 518 523 850 19 43 82 201 85 215 2 8 11 35 20 60
9 25 27 83 41 130 13 47 28 101 34 120 29 102 80 378 105 570 27 206 27 619 0
795 -2 17 -9 62 -14 100 -6 39 -13 81 -16 95 -3 14 -10 45 -15 70 -43 208
-126 442 -226 643 -45 88 -190 337 -203 347 -4 3 -29 37 -55 75 -27 39 -54 75
-60 80 -7 6 -18 19 -26 31 -58 83 -291 330 -415 439 -300 263 -648 504 -1025
709 -135 74 -484 247 -615 306 -66 29 -143 64 -172 77 -28 12 -54 23 -57 23
-3 0 -29 11 -58 24 -29 13 -78 33 -108 46 -30 13 -68 29 -85 36 -16 7 -55 22
-85 34 -30 12 -66 27 -80 33 -14 5 -30 11 -35 12 -6 2 -64 24 -130 49 -66 26
-163 63 -215 82 -52 19 -102 38 -110 43 -8 4 -116 40 -240 80 -124 40 -234 77
-245 81 -11 5 -51 19 -90 31 -366 116 -661 254 -796 374 -129 115 -171 250
-117 378 65 155 192 231 466 276 57 9 394 7 477 -4 28 -3 64 -8 80 -10 65 -8
123 -16 180 -26 33 -5 69 -11 80 -13 11 -2 34 -6 50 -9 17 -4 42 -9 58 -12 15
-3 39 -7 55 -10 15 -3 69 -15 120 -26 52 -12 99 -22 105 -23 7 -2 30 -8 52
-14 22 -6 54 -13 70 -16 17 -3 118 -31 225 -61 107 -31 202 -58 210 -60 8 -1
53 -16 100 -31 47 -15 87 -28 90 -29 71 -12 865 -303 1038 -382 18 -8 39 -12
46 -10 7 3 30 38 51 79 36 70 73 141 165 313 24 44 65 123 92 175 27 52 53 99
58 104 6 6 10 18 10 27 0 10 3 19 8 21 4 2 30 48 59 103 28 55 86 165 128 245
42 80 110 210 152 290 41 80 88 168 103 195 15 28 65 122 111 210 46 88 99
190 119 227 79 152 145 277 180 343 21 39 72 138 115 220 43 83 82 154 86 159
24 26 13 33 -246 151 -44 20 -123 55 -175 77 -52 22 -114 49 -137 59 -23 10
-45 19 -48 19 -4 0 -21 6 -38 14 -50 23 -104 44 -207 82 -176 65 -195 72 -240
89 -25 9 -52 19 -60 21 -8 2 -60 19 -115 38 -105 36 -318 102 -420 131 -33 9
-71 21 -85 25 -64 21 -453 116 -555 136 -22 4 -44 8 -50 10 -23 6 -213 43
-249 48 -21 4 -41 8 -45 10 -3 2 -31 7 -61 11 -30 4 -64 9 -75 11 -34 5 -77
12 -165 24 -47 6 -98 13 -115 16 -16 3 -52 7 -79 9 -27 2 -65 6 -85 9 -35 6
-73 9 -214 21 -38 3 -98 8 -135 11 -79 7 -827 16 -833 10z"/>
</g>
</svg>
